<svg width="60" height="56" viewBox="0 0 60 56" fill="none" xmlns="http://www.w3.org/2000/svg">
<path d="M1.24247 56C1.92866 56 2.48493 55.4437 2.48493 54.7575C2.48493 54.0713 1.92866 53.5151 1.24247 53.5151C0.556271 53.5151 0 54.0713 0 54.7575C0 55.4437 0.556271 56 1.24247 56Z" fill="#DE6944"/>
<path d="M1.24247 45.2621C1.92866 45.2621 2.48493 44.7058 2.48493 44.0196C2.48493 43.3334 1.92866 42.7772 1.24247 42.7772C0.556271 42.7772 0 43.3334 0 44.0196C0 44.7058 0.556271 45.2621 1.24247 45.2621Z" fill="#DE6944"/>
<path d="M1.24247 34.5229C1.92866 34.5229 2.48493 33.9666 2.48493 33.2804C2.48493 32.5942 1.92866 32.0379 1.24247 32.0379C0.556271 32.0379 0 32.5942 0 33.2804C0 33.9666 0.556271 34.5229 1.24247 34.5229Z" fill="#DE6944"/>
<path d="M1.24247 23.8731C1.92866 23.8731 2.48493 23.3169 2.48493 22.6307C2.48493 21.9445 1.92866 21.3882 1.24247 21.3882C0.556271 21.3882 0 21.9445 0 22.6307C0 23.3169 0.556271 23.8731 1.24247 23.8731Z" fill="#DE6944"/>
<path d="M1.24247 13.1352C1.92866 13.1352 2.48493 12.579 2.48493 11.8928C2.48493 11.2066 1.92866 10.6503 1.24247 10.6503C0.556271 10.6503 0 11.2066 0 11.8928C0 12.579 0.556271 13.1352 1.24247 13.1352Z" fill="#DE6944"/>
<path d="M1.24393 2.48575C1.93012 2.48575 2.4864 1.92948 2.4864 1.24329C2.4864 0.557095 1.93012 0.000823975 1.24393 0.000823975C0.557735 0.000823975 0.00146484 0.557095 0.00146484 1.24329C0.00146484 1.92948 0.557735 2.48575 1.24393 2.48575Z" fill="#DE6944"/>
<path d="M58.7527 55.9992C59.4389 55.9992 59.9952 55.443 59.9952 54.7568C59.9952 54.0706 59.4389 53.5143 58.7527 53.5143C58.0665 53.5143 57.5103 54.0706 57.5103 54.7568C57.5103 55.443 58.0665 55.9992 58.7527 55.9992Z" fill="#DE6944"/>
<path d="M58.7527 45.2613C59.4389 45.2613 59.9952 44.705 59.9952 44.0188C59.9952 43.3326 59.4389 42.7763 58.7527 42.7763C58.0665 42.7763 57.5103 43.3326 57.5103 44.0188C57.5103 44.705 58.0665 45.2613 58.7527 45.2613Z" fill="#DE6944"/>
<path d="M58.7527 34.5221C59.4389 34.5221 59.9952 33.9658 59.9952 33.2796C59.9952 32.5934 59.4389 32.0371 58.7527 32.0371C58.0665 32.0371 57.5103 32.5934 57.5103 33.2796C57.5103 33.9658 58.0665 34.5221 58.7527 34.5221Z" fill="#DE6944"/>
<path d="M58.7527 23.8724C59.4389 23.8724 59.9952 23.3161 59.9952 22.6299C59.9952 21.9437 59.4389 21.3875 58.7527 21.3875C58.0665 21.3875 57.5103 21.9437 57.5103 22.6299C57.5103 23.3161 58.0665 23.8724 58.7527 23.8724Z" fill="#DE6944"/>
<path d="M58.7527 13.1344C59.4389 13.1344 59.9952 12.5781 59.9952 11.8919C59.9952 11.2057 59.4389 10.6495 58.7527 10.6495C58.0665 10.6495 57.5103 11.2057 57.5103 11.8919C57.5103 12.5781 58.0665 13.1344 58.7527 13.1344Z" fill="#DE6944"/>
<path d="M58.753 2.48493C59.4392 2.48493 59.9954 1.92866 59.9954 1.24247C59.9954 0.556271 59.4392 0 58.753 0C58.0668 0 57.5105 0.556271 57.5105 1.24247C57.5105 1.92866 58.0668 2.48493 58.753 2.48493Z" fill="#DE6944"/>
<path d="M47.3042 55.9992C47.9904 55.9992 48.5467 55.443 48.5467 54.7568C48.5467 54.0706 47.9904 53.5143 47.3042 53.5143C46.618 53.5143 46.0618 54.0706 46.0618 54.7568C46.0618 55.443 46.618 55.9992 47.3042 55.9992Z" fill="#DE6944"/>
<path d="M47.3042 45.2613C47.9904 45.2613 48.5467 44.705 48.5467 44.0188C48.5467 43.3326 47.9904 42.7763 47.3042 42.7763C46.618 42.7763 46.0618 43.3326 46.0618 44.0188C46.0618 44.705 46.618 45.2613 47.3042 45.2613Z" fill="#DE6944"/>
<path d="M47.3042 34.5221C47.9904 34.5221 48.5467 33.9658 48.5467 33.2796C48.5467 32.5934 47.9904 32.0371 47.3042 32.0371C46.618 32.0371 46.0618 32.5934 46.0618 33.2796C46.0618 33.9658 46.618 34.5221 47.3042 34.5221Z" fill="#DE6944"/>
<path d="M47.3042 23.8724C47.9904 23.8724 48.5467 23.3161 48.5467 22.6299C48.5467 21.9437 47.9904 21.3875 47.3042 21.3875C46.618 21.3875 46.0618 21.9437 46.0618 22.6299C46.0618 23.3161 46.618 23.8724 47.3042 23.8724Z" fill="#DE6944"/>
<path d="M47.3042 13.1344C47.9904 13.1344 48.5467 12.5781 48.5467 11.8919C48.5467 11.2057 47.9904 10.6495 47.3042 10.6495C46.618 10.6495 46.0618 11.2057 46.0618 11.8919C46.0618 12.5781 46.618 13.1344 47.3042 13.1344Z" fill="#DE6944"/>
<path d="M47.3038 2.48493C47.9899 2.48493 48.5462 1.92866 48.5462 1.24247C48.5462 0.556271 47.9899 0 47.3038 0C46.6176 0 46.0613 0.556271 46.0613 1.24247C46.0613 1.92866 46.6176 2.48493 47.3038 2.48493Z" fill="#DE6944"/>
<path d="M35.7671 55.9992C36.4533 55.9992 37.0096 55.443 37.0096 54.7568C37.0096 54.0706 36.4533 53.5143 35.7671 53.5143C35.0809 53.5143 34.5247 54.0706 34.5247 54.7568C34.5247 55.443 35.0809 55.9992 35.7671 55.9992Z" fill="#DE6944"/>
<path d="M35.7671 45.2613C36.4533 45.2613 37.0096 44.705 37.0096 44.0188C37.0096 43.3326 36.4533 42.7763 35.7671 42.7763C35.0809 42.7763 34.5247 43.3326 34.5247 44.0188C34.5247 44.705 35.0809 45.2613 35.7671 45.2613Z" fill="#DE6944"/>
<path d="M35.7671 34.5221C36.4533 34.5221 37.0096 33.9658 37.0096 33.2796C37.0096 32.5934 36.4533 32.0371 35.7671 32.0371C35.0809 32.0371 34.5247 32.5934 34.5247 33.2796C34.5247 33.9658 35.0809 34.5221 35.7671 34.5221Z" fill="#DE6944"/>
<path d="M35.7671 23.8724C36.4533 23.8724 37.0096 23.3161 37.0096 22.6299C37.0096 21.9437 36.4533 21.3875 35.7671 21.3875C35.0809 21.3875 34.5247 21.9437 34.5247 22.6299C34.5247 23.3161 35.0809 23.8724 35.7671 23.8724Z" fill="#DE6944"/>
<path d="M35.7671 13.1344C36.4533 13.1344 37.0096 12.5781 37.0096 11.8919C37.0096 11.2057 36.4533 10.6495 35.7671 10.6495C35.0809 10.6495 34.5247 11.2057 34.5247 11.8919C34.5247 12.5781 35.0809 13.1344 35.7671 13.1344Z" fill="#DE6944"/>
<path d="M35.7666 2.48493C36.4528 2.48493 37.0091 1.92866 37.0091 1.24247C37.0091 0.556271 36.4528 0 35.7666 0C35.0804 0 34.5242 0.556271 34.5242 1.24247C34.5242 1.92866 35.0804 2.48493 35.7666 2.48493Z" fill="#DE6944"/>
<path d="M24.2298 55.9992C24.916 55.9992 25.4722 55.443 25.4722 54.7568C25.4722 54.0706 24.916 53.5143 24.2298 53.5143C23.5436 53.5143 22.9873 54.0706 22.9873 54.7568C22.9873 55.443 23.5436 55.9992 24.2298 55.9992Z" fill="#DE6944"/>
<path d="M24.2298 45.2613C24.916 45.2613 25.4722 44.705 25.4722 44.0188C25.4722 43.3326 24.916 42.7763 24.2298 42.7763C23.5436 42.7763 22.9873 43.3326 22.9873 44.0188C22.9873 44.705 23.5436 45.2613 24.2298 45.2613Z" fill="#DE6944"/>
<path d="M24.2298 34.5221C24.916 34.5221 25.4722 33.9658 25.4722 33.2796C25.4722 32.5934 24.916 32.0371 24.2298 32.0371C23.5436 32.0371 22.9873 32.5934 22.9873 33.2796C22.9873 33.9658 23.5436 34.5221 24.2298 34.5221Z" fill="#DE6944"/>
<path d="M24.2298 23.8724C24.916 23.8724 25.4722 23.3161 25.4722 22.6299C25.4722 21.9437 24.916 21.3875 24.2298 21.3875C23.5436 21.3875 22.9873 21.9437 22.9873 22.6299C22.9873 23.3161 23.5436 23.8724 24.2298 23.8724Z" fill="#DE6944"/>
<path d="M24.2298 13.1344C24.916 13.1344 25.4722 12.5781 25.4722 11.8919C25.4722 11.2057 24.916 10.6495 24.2298 10.6495C23.5436 10.6495 22.9873 11.2057 22.9873 11.8919C22.9873 12.5781 23.5436 13.1344 24.2298 13.1344Z" fill="#DE6944"/>
<path d="M24.2293 2.48493C24.9155 2.48493 25.4718 1.92866 25.4718 1.24247C25.4718 0.556271 24.9155 0 24.2293 0C23.5431 0 22.9868 0.556271 22.9868 1.24247C22.9868 1.92866 23.5431 2.48493 24.2293 2.48493Z" fill="#DE6944"/>
<path d="M12.6929 55.9992C13.3791 55.9992 13.9354 55.443 13.9354 54.7568C13.9354 54.0706 13.3791 53.5143 12.6929 53.5143C12.0067 53.5143 11.4504 54.0706 11.4504 54.7568C11.4504 55.443 12.0067 55.9992 12.6929 55.9992Z" fill="#DE6944"/>
<path d="M12.6929 45.2613C13.3791 45.2613 13.9354 44.705 13.9354 44.0188C13.9354 43.3326 13.3791 42.7763 12.6929 42.7763C12.0067 42.7763 11.4504 43.3326 11.4504 44.0188C11.4504 44.705 12.0067 45.2613 12.6929 45.2613Z" fill="#DE6944"/>
<path d="M12.6929 34.5221C13.3791 34.5221 13.9354 33.9658 13.9354 33.2796C13.9354 32.5934 13.3791 32.0371 12.6929 32.0371C12.0067 32.0371 11.4504 32.5934 11.4504 33.2796C11.4504 33.9658 12.0067 34.5221 12.6929 34.5221Z" fill="#DE6944"/>
<path d="M12.6929 23.8724C13.3791 23.8724 13.9354 23.3161 13.9354 22.6299C13.9354 21.9437 13.3791 21.3875 12.6929 21.3875C12.0067 21.3875 11.4504 21.9437 11.4504 22.6299C11.4504 23.3161 12.0067 23.8724 12.6929 23.8724Z" fill="#DE6944"/>
<path d="M12.6929 13.1344C13.3791 13.1344 13.9354 12.5781 13.9354 11.8919C13.9354 11.2057 13.3791 10.6495 12.6929 10.6495C12.0067 10.6495 11.4504 11.2057 11.4504 11.8919C11.4504 12.5781 12.0067 13.1344 12.6929 13.1344Z" fill="#DE6944"/>
<path d="M12.6922 2.48493C13.3784 2.48493 13.9346 1.92866 13.9346 1.24247C13.9346 0.556271 13.3784 0 12.6922 0C12.006 0 11.4497 0.556271 11.4497 1.24247C11.4497 1.92866 12.006 2.48493 12.6922 2.48493Z" fill="#DE6944"/>
</svg>
