<svg width="44" height="30" viewBox="0 0 44 30" fill="none" xmlns="http://www.w3.org/2000/svg">
<path fill-rule="evenodd" clip-rule="evenodd" d="M10.506 28.7518C7.86928 29.9005 4.98071 30.2578 2.18355 29.8177C0.395726 29.5364 -0.435767 27.5946 0.226391 25.9102C0.888548 24.2259 2.81926 23.4696 4.62893 23.4453C5.74076 23.4303 6.8494 23.1959 7.88858 22.7432C9.9422 21.8486 11.5563 20.1749 12.3759 18.0902C13.1955 16.0054 13.1533 13.6805 12.2587 11.6269C11.806 10.5877 11.1538 9.66109 10.3498 8.89299C9.04118 7.64279 8.14239 5.77416 8.80454 4.08981C9.4667 2.40547 11.3979 1.54976 12.8987 2.56127C14.1094 3.3773 15.1936 4.36516 16.1173 5.49218C16.349 5.775 16.789 5.77501 17.0208 5.49219C19.1555 2.8873 22.1048 1.07661 25.3937 0.35165C28.6827 -0.373307 32.1199 0.0296556 35.1519 1.49566C38.184 2.96166 40.6345 5.4054 42.1088 8.43341C42.9641 10.19 43.4621 12.0839 43.5897 14.0071C43.7435 16.3252 41.4395 17.7881 39.1694 17.2943C36.8993 16.8005 35.5819 14.4046 34.6252 12.2876C34.5993 12.2302 34.5725 12.1731 34.5449 12.1164C33.8974 10.7867 32.8213 9.71353 31.4898 9.06976C30.1584 8.42598 28.649 8.24902 27.2047 8.56738C25.7604 8.88573 24.4653 9.68087 23.5278 10.8248C22.5904 11.9687 22.0652 13.3948 22.0368 14.8735C22.0083 16.3521 22.4784 17.7974 23.3712 18.9764C24.264 20.1555 25.5276 20.9998 26.9586 21.3734C27.0197 21.3893 27.0809 21.4044 27.1423 21.4185C29.406 21.9407 32.014 22.7618 32.9441 24.8906C33.8743 27.0194 32.8925 29.5659 30.5894 29.8705C28.6786 30.1232 26.7238 30.007 24.8334 29.5135C21.5748 28.6627 18.6973 26.7401 16.6641 24.0551C16.6165 23.9922 16.5216 23.9922 16.4739 24.0551C14.9339 26.0888 12.8862 27.715 10.506 28.7518Z" fill="white"/>
</svg>
