<svg width="43" height="68" viewBox="0 0 43 68" fill="none" xmlns="http://www.w3.org/2000/svg">
<g filter="url(#filter0_dd_1_292)">
<g clip-path="url(#clip0_1_292)">
<path d="M10.7538 67.568C16.6866 67.568 21.5017 62.5227 21.5017 56.3061V45.0442H10.7538C4.82102 45.0442 0.00598367 50.0896 0.00598367 56.3061C0.00598367 62.5227 4.82102 67.568 10.7538 67.568Z" fill="#0ACF83"/>
<path d="M0.00598367 33.7839C0.00598367 27.5674 4.82102 22.522 10.7538 22.522H21.5017V45.0458H10.7538C4.82102 45.0458 0.00598367 40.0005 0.00598367 33.7839Z" fill="#A259FF"/>
<path d="M0.0123337 11.2617C0.0123337 5.04515 4.82737 -0.000183174 10.7602 -0.000183174H21.508V22.5236H10.7602C4.82737 22.5236 0.0123337 17.4783 0.0123337 11.2617Z" fill="#F24E1E"/>
<path d="M21.4993 -0.000152645H32.2471C38.1799 -0.000152645 42.995 5.04518 42.995 11.2618C42.995 17.4783 38.1799 22.5237 32.2471 22.5237H21.4993V-0.000152645Z" fill="#FF7262"/>
<path d="M42.995 33.7839C42.995 40.0005 38.1799 45.0458 32.2471 45.0458C26.3143 45.0458 21.4993 40.0005 21.4993 33.7839C21.4993 27.5674 26.3143 22.522 32.2471 22.522C38.1799 22.522 42.995 27.5674 42.995 33.7839Z" fill="#1ABCFE"/>
</g>
</g>
<defs>
<filter id="filter0_dd_1_292" x="-30.4997" y="-7.62493" width="103.999" height="128.571" filterUnits="userSpaceOnUse" color-interpolation-filters="sRGB">
<feFlood flood-opacity="0" result="BackgroundImageFix"/>
<feColorMatrix in="SourceAlpha" type="matrix" values="0 0 0 0 0 0 0 0 0 0 0 0 0 0 0 0 0 0 127 0" result="hardAlpha"/>
<feOffset dy="22.8663"/>
<feGaussianBlur stdDeviation="15.2442"/>
<feColorMatrix type="matrix" values="0 0 0 0 0.196487 0 0 0 0 0.196487 0 0 0 0 0.279476 0 0 0 0.08 0"/>
<feBlend mode="multiply" in2="BackgroundImageFix" result="effect1_dropShadow_1_292"/>
<feColorMatrix in="SourceAlpha" type="matrix" values="0 0 0 0 0 0 0 0 0 0 0 0 0 0 0 0 0 0 127 0" result="hardAlpha"/>
<feOffset dy="15.2442"/>
<feGaussianBlur stdDeviation="7.62209"/>
<feColorMatrix type="matrix" values="0 0 0 0 0.196487 0 0 0 0 0.196487 0 0 0 0 0.279476 0 0 0 0.08 0"/>
<feBlend mode="multiply" in2="effect1_dropShadow_1_292" result="effect2_dropShadow_1_292"/>
<feBlend mode="normal" in="SourceGraphic" in2="effect2_dropShadow_1_292" result="shape"/>
</filter>
<clipPath id="clip0_1_292">
<rect width="42.984" height="67.5462" fill="white" transform="scale(1.00037)"/>
</clipPath>
</defs>
</svg>
